<!-- Dummy SVG for testing Spider generation -->
<svg width="24" height="24" viewBox="0 0 24 24" fill="none" xmlns="http://www.w3.org/2000/svg">
  <path d="M10.29 3.86L1.82 18C1.64486 18.3024 1.55329 18.6453 1.55329 18.995C1.55329 19.3447 1.64486 19.6876 1.82 19.99C1.99514 20.2924 2.24821 20.5455 2.55061 20.7206C2.85301 20.8957 3.19591 20.9871 3.545 20.985H20.455C20.8041 20.9871 21.147 20.8957 21.4494 20.7206C21.7518 20.5455 22.0049 20.2924 22.18 19.99C22.3551 19.6876 22.4467 19.3447 22.4467 18.995C22.4467 18.6453 22.3551 18.3024 22.18 18L13.71 3.86C13.5318 3.56611 13.2807 3.32312 12.9812 3.15448C12.6817 2.98585 12.3438 2.89725 12 2.89725C11.6562 2.89725 11.3183 2.98585 11.0188 3.15448C10.7193 3.32312 10.4682 3.56611 10.29 3.86V3.86Z" stroke="currentColor" stroke-width="2" stroke-linecap="round" stroke-linejoin="round"/>
  <path d="M12 9V13" stroke="currentColor" stroke-width="2" stroke-linecap="round" stroke-linejoin="round"/>
  <path d="M12 17H12.01" stroke="currentColor" stroke-width="2" stroke-linecap="round" stroke-linejoin="round"/>
</svg>